<mxfile host="app.diagrams.net" agent="Mozilla/5.0 (Windows NT 10.0; Win64; x64) AppleWebKit/537.36 (KHTML, like Gecko) Chrome/131.0.0.0 Safari/537.36" version="26.0.3">
  <diagram name="Page-1" id="NQi-qj9RWjXXZ9nGB_0W">
    <mxGraphModel dx="3243" dy="2320" grid="1" gridSize="10" guides="1" tooltips="1" connect="1" arrows="1" fold="1" page="1" pageScale="1" pageWidth="850" pageHeight="1100" math="0" shadow="0">
      <root>
        <mxCell id="0" />
        <mxCell id="1" parent="0" />
        <mxCell id="Ysm--PjL4J-Ic120Il5L-30" value="" style="rounded=0;whiteSpace=wrap;html=1;dashed=1;dashPattern=8 8;" parent="1" vertex="1">
          <mxGeometry x="830" y="-360" width="1010" height="590" as="geometry" />
        </mxCell>
        <mxCell id="oJ3QWZMt2NWCqgBl0X_o-31" value="" style="rounded=0;whiteSpace=wrap;html=1;dashed=1;dashPattern=8 8;" parent="1" vertex="1">
          <mxGeometry x="50" y="310" width="1430" height="660" as="geometry" />
        </mxCell>
        <mxCell id="lAZP1rvu_MSJ7CvuDxen-2" value="SortAscending7(Row 0)" style="rounded=0;whiteSpace=wrap;html=1;" parent="1" vertex="1">
          <mxGeometry x="120" y="350" width="130" height="270" as="geometry" />
        </mxCell>
        <mxCell id="lAZP1rvu_MSJ7CvuDxen-3" value="" style="endArrow=classic;html=1;rounded=0;" parent="1" edge="1">
          <mxGeometry width="50" height="50" relative="1" as="geometry">
            <mxPoint x="40" y="360" as="sourcePoint" />
            <mxPoint x="120" y="360" as="targetPoint" />
          </mxGeometry>
        </mxCell>
        <mxCell id="lAZP1rvu_MSJ7CvuDxen-4" value="" style="endArrow=classic;html=1;rounded=0;" parent="1" edge="1">
          <mxGeometry width="50" height="50" relative="1" as="geometry">
            <mxPoint x="40" y="400" as="sourcePoint" />
            <mxPoint x="120" y="400" as="targetPoint" />
          </mxGeometry>
        </mxCell>
        <mxCell id="lAZP1rvu_MSJ7CvuDxen-5" value="" style="endArrow=classic;html=1;rounded=0;" parent="1" edge="1">
          <mxGeometry width="50" height="50" relative="1" as="geometry">
            <mxPoint x="40" y="440" as="sourcePoint" />
            <mxPoint x="120" y="440" as="targetPoint" />
          </mxGeometry>
        </mxCell>
        <mxCell id="lAZP1rvu_MSJ7CvuDxen-6" value="" style="endArrow=classic;html=1;rounded=0;" parent="1" edge="1">
          <mxGeometry width="50" height="50" relative="1" as="geometry">
            <mxPoint x="40" y="480" as="sourcePoint" />
            <mxPoint x="120" y="480" as="targetPoint" />
          </mxGeometry>
        </mxCell>
        <mxCell id="lAZP1rvu_MSJ7CvuDxen-7" value="" style="endArrow=classic;html=1;rounded=0;" parent="1" edge="1">
          <mxGeometry width="50" height="50" relative="1" as="geometry">
            <mxPoint x="40" y="520" as="sourcePoint" />
            <mxPoint x="120" y="520" as="targetPoint" />
          </mxGeometry>
        </mxCell>
        <mxCell id="lAZP1rvu_MSJ7CvuDxen-8" value="" style="endArrow=classic;html=1;rounded=0;" parent="1" edge="1">
          <mxGeometry width="50" height="50" relative="1" as="geometry">
            <mxPoint x="40" y="560" as="sourcePoint" />
            <mxPoint x="120" y="560" as="targetPoint" />
          </mxGeometry>
        </mxCell>
        <mxCell id="lAZP1rvu_MSJ7CvuDxen-9" value="" style="endArrow=classic;html=1;rounded=0;" parent="1" edge="1">
          <mxGeometry width="50" height="50" relative="1" as="geometry">
            <mxPoint x="40" y="600" as="sourcePoint" />
            <mxPoint x="120" y="600" as="targetPoint" />
          </mxGeometry>
        </mxCell>
        <mxCell id="lAZP1rvu_MSJ7CvuDxen-10" value="S1" style="text;html=1;align=center;verticalAlign=middle;whiteSpace=wrap;rounded=0;" parent="1" vertex="1">
          <mxGeometry x="-10" y="330" width="60" height="30" as="geometry" />
        </mxCell>
        <mxCell id="lAZP1rvu_MSJ7CvuDxen-11" value="S2" style="text;html=1;align=center;verticalAlign=middle;whiteSpace=wrap;rounded=0;" parent="1" vertex="1">
          <mxGeometry x="-10" y="370" width="60" height="30" as="geometry" />
        </mxCell>
        <mxCell id="lAZP1rvu_MSJ7CvuDxen-12" value="S3" style="text;html=1;align=center;verticalAlign=middle;whiteSpace=wrap;rounded=0;" parent="1" vertex="1">
          <mxGeometry x="-10" y="410" width="60" height="30" as="geometry" />
        </mxCell>
        <mxCell id="lAZP1rvu_MSJ7CvuDxen-13" value="S4" style="text;html=1;align=center;verticalAlign=middle;whiteSpace=wrap;rounded=0;" parent="1" vertex="1">
          <mxGeometry x="-10" y="450" width="60" height="30" as="geometry" />
        </mxCell>
        <mxCell id="lAZP1rvu_MSJ7CvuDxen-14" value="S5" style="text;html=1;align=center;verticalAlign=middle;whiteSpace=wrap;rounded=0;" parent="1" vertex="1">
          <mxGeometry x="-10" y="490" width="60" height="30" as="geometry" />
        </mxCell>
        <mxCell id="lAZP1rvu_MSJ7CvuDxen-15" value="S6" style="text;html=1;align=center;verticalAlign=middle;whiteSpace=wrap;rounded=0;" parent="1" vertex="1">
          <mxGeometry x="-10" y="530" width="60" height="30" as="geometry" />
        </mxCell>
        <mxCell id="lAZP1rvu_MSJ7CvuDxen-16" value="S7" style="text;html=1;align=center;verticalAlign=middle;whiteSpace=wrap;rounded=0;" parent="1" vertex="1">
          <mxGeometry x="-10" y="570" width="60" height="30" as="geometry" />
        </mxCell>
        <mxCell id="lAZP1rvu_MSJ7CvuDxen-17" value="SortAscending7(Row 6)" style="rounded=0;whiteSpace=wrap;html=1;" parent="1" vertex="1">
          <mxGeometry x="120" y="680" width="130" height="270" as="geometry" />
        </mxCell>
        <mxCell id="lAZP1rvu_MSJ7CvuDxen-18" value="" style="endArrow=classic;html=1;rounded=0;" parent="1" edge="1">
          <mxGeometry width="50" height="50" relative="1" as="geometry">
            <mxPoint x="40" y="690" as="sourcePoint" />
            <mxPoint x="120" y="690" as="targetPoint" />
          </mxGeometry>
        </mxCell>
        <mxCell id="lAZP1rvu_MSJ7CvuDxen-19" value="" style="endArrow=classic;html=1;rounded=0;" parent="1" edge="1">
          <mxGeometry width="50" height="50" relative="1" as="geometry">
            <mxPoint x="40" y="730" as="sourcePoint" />
            <mxPoint x="120" y="730" as="targetPoint" />
          </mxGeometry>
        </mxCell>
        <mxCell id="lAZP1rvu_MSJ7CvuDxen-20" value="" style="endArrow=classic;html=1;rounded=0;" parent="1" edge="1">
          <mxGeometry width="50" height="50" relative="1" as="geometry">
            <mxPoint x="40" y="770" as="sourcePoint" />
            <mxPoint x="120" y="770" as="targetPoint" />
          </mxGeometry>
        </mxCell>
        <mxCell id="lAZP1rvu_MSJ7CvuDxen-21" value="" style="endArrow=classic;html=1;rounded=0;" parent="1" edge="1">
          <mxGeometry width="50" height="50" relative="1" as="geometry">
            <mxPoint x="40" y="810" as="sourcePoint" />
            <mxPoint x="120" y="810" as="targetPoint" />
          </mxGeometry>
        </mxCell>
        <mxCell id="lAZP1rvu_MSJ7CvuDxen-22" value="" style="endArrow=classic;html=1;rounded=0;" parent="1" edge="1">
          <mxGeometry width="50" height="50" relative="1" as="geometry">
            <mxPoint x="40" y="850" as="sourcePoint" />
            <mxPoint x="120" y="850" as="targetPoint" />
          </mxGeometry>
        </mxCell>
        <mxCell id="lAZP1rvu_MSJ7CvuDxen-23" value="" style="endArrow=classic;html=1;rounded=0;" parent="1" edge="1">
          <mxGeometry width="50" height="50" relative="1" as="geometry">
            <mxPoint x="40" y="890" as="sourcePoint" />
            <mxPoint x="120" y="890" as="targetPoint" />
          </mxGeometry>
        </mxCell>
        <mxCell id="lAZP1rvu_MSJ7CvuDxen-24" value="" style="endArrow=classic;html=1;rounded=0;" parent="1" edge="1">
          <mxGeometry width="50" height="50" relative="1" as="geometry">
            <mxPoint x="40" y="930" as="sourcePoint" />
            <mxPoint x="120" y="930" as="targetPoint" />
          </mxGeometry>
        </mxCell>
        <mxCell id="lAZP1rvu_MSJ7CvuDxen-25" value="S43" style="text;html=1;align=center;verticalAlign=middle;whiteSpace=wrap;rounded=0;" parent="1" vertex="1">
          <mxGeometry x="-10" y="660" width="60" height="30" as="geometry" />
        </mxCell>
        <mxCell id="lAZP1rvu_MSJ7CvuDxen-26" value="S44" style="text;html=1;align=center;verticalAlign=middle;whiteSpace=wrap;rounded=0;" parent="1" vertex="1">
          <mxGeometry x="-10" y="700" width="60" height="30" as="geometry" />
        </mxCell>
        <mxCell id="lAZP1rvu_MSJ7CvuDxen-27" value="S45" style="text;html=1;align=center;verticalAlign=middle;whiteSpace=wrap;rounded=0;" parent="1" vertex="1">
          <mxGeometry x="-10" y="740" width="60" height="30" as="geometry" />
        </mxCell>
        <mxCell id="lAZP1rvu_MSJ7CvuDxen-28" value="S46" style="text;html=1;align=center;verticalAlign=middle;whiteSpace=wrap;rounded=0;" parent="1" vertex="1">
          <mxGeometry x="-10" y="780" width="60" height="30" as="geometry" />
        </mxCell>
        <mxCell id="lAZP1rvu_MSJ7CvuDxen-29" value="S47" style="text;html=1;align=center;verticalAlign=middle;whiteSpace=wrap;rounded=0;" parent="1" vertex="1">
          <mxGeometry x="-10" y="820" width="60" height="30" as="geometry" />
        </mxCell>
        <mxCell id="lAZP1rvu_MSJ7CvuDxen-30" value="S48" style="text;html=1;align=center;verticalAlign=middle;whiteSpace=wrap;rounded=0;" parent="1" vertex="1">
          <mxGeometry x="-10" y="860" width="60" height="30" as="geometry" />
        </mxCell>
        <mxCell id="lAZP1rvu_MSJ7CvuDxen-31" value="S49" style="text;html=1;align=center;verticalAlign=middle;whiteSpace=wrap;rounded=0;" parent="1" vertex="1">
          <mxGeometry x="-10" y="900" width="60" height="30" as="geometry" />
        </mxCell>
        <mxCell id="lAZP1rvu_MSJ7CvuDxen-32" value="......" style="text;html=1;align=center;verticalAlign=middle;whiteSpace=wrap;rounded=0;direction=north;rotation=90;" parent="1" vertex="1">
          <mxGeometry x="80" y="620" width="50" height="60" as="geometry" />
        </mxCell>
        <mxCell id="lAZP1rvu_MSJ7CvuDxen-33" value="SortAscending7(Col 0)" style="rounded=0;whiteSpace=wrap;html=1;" parent="1" vertex="1">
          <mxGeometry x="425" y="350" width="130" height="270" as="geometry" />
        </mxCell>
        <mxCell id="lAZP1rvu_MSJ7CvuDxen-34" value="" style="endArrow=classic;html=1;rounded=0;exitX=0.994;exitY=0.04;exitDx=0;exitDy=0;exitPerimeter=0;entryX=0.008;entryY=0.037;entryDx=0;entryDy=0;entryPerimeter=0;" parent="1" source="lAZP1rvu_MSJ7CvuDxen-2" target="lAZP1rvu_MSJ7CvuDxen-33" edge="1">
          <mxGeometry width="50" height="50" relative="1" as="geometry">
            <mxPoint x="260" y="410" as="sourcePoint" />
            <mxPoint x="420" y="360" as="targetPoint" />
          </mxGeometry>
        </mxCell>
        <mxCell id="lAZP1rvu_MSJ7CvuDxen-35" value="SortAscending7(Col 6)" style="rounded=0;whiteSpace=wrap;html=1;" parent="1" vertex="1">
          <mxGeometry x="425" y="680" width="130" height="270" as="geometry" />
        </mxCell>
        <mxCell id="lAZP1rvu_MSJ7CvuDxen-40" value="" style="endArrow=classic;html=1;rounded=0;exitX=0.995;exitY=0.149;exitDx=0;exitDy=0;exitPerimeter=0;entryX=0.01;entryY=0.929;entryDx=0;entryDy=0;entryPerimeter=0;" parent="1" source="lAZP1rvu_MSJ7CvuDxen-17" target="lAZP1rvu_MSJ7CvuDxen-33" edge="1">
          <mxGeometry width="50" height="50" relative="1" as="geometry">
            <mxPoint x="300" y="679.17" as="sourcePoint" />
            <mxPoint x="380" y="679.17" as="targetPoint" />
            <Array as="points">
              <mxPoint x="310" y="720" />
              <mxPoint x="350" y="600" />
            </Array>
          </mxGeometry>
        </mxCell>
        <mxCell id="lAZP1rvu_MSJ7CvuDxen-41" value="......" style="text;html=1;align=center;verticalAlign=middle;whiteSpace=wrap;rounded=0;direction=north;rotation=90;" parent="1" vertex="1">
          <mxGeometry x="470" y="620" width="50" height="60" as="geometry" />
        </mxCell>
        <mxCell id="lAZP1rvu_MSJ7CvuDxen-42" value="" style="endArrow=classic;html=1;rounded=0;entryX=-0.024;entryY=0.154;entryDx=0;entryDy=0;entryPerimeter=0;exitX=1.008;exitY=0.927;exitDx=0;exitDy=0;exitPerimeter=0;" parent="1" source="lAZP1rvu_MSJ7CvuDxen-2" target="lAZP1rvu_MSJ7CvuDxen-35" edge="1">
          <mxGeometry width="50" height="50" relative="1" as="geometry">
            <mxPoint x="260" y="650" as="sourcePoint" />
            <mxPoint x="310" y="600" as="targetPoint" />
            <Array as="points">
              <mxPoint x="320" y="600" />
              <mxPoint x="360" y="720" />
            </Array>
          </mxGeometry>
        </mxCell>
        <mxCell id="lAZP1rvu_MSJ7CvuDxen-106" value="Median_5x5_calc" style="rounded=0;whiteSpace=wrap;html=1;" parent="1" vertex="1">
          <mxGeometry x="1180" y="550" width="210" height="220" as="geometry" />
        </mxCell>
        <mxCell id="lAZP1rvu_MSJ7CvuDxen-107" value="" style="endArrow=classic;html=1;rounded=0;exitX=1;exitY=0.667;exitDx=0;exitDy=0;exitPerimeter=0;" parent="1" source="lAZP1rvu_MSJ7CvuDxen-33" edge="1">
          <mxGeometry width="50" height="50" relative="1" as="geometry">
            <mxPoint x="560" y="530" as="sourcePoint" />
            <mxPoint x="710" y="530" as="targetPoint" />
          </mxGeometry>
        </mxCell>
        <mxCell id="lAZP1rvu_MSJ7CvuDxen-109" value="" style="endArrow=classic;html=1;rounded=0;exitX=0.998;exitY=0.147;exitDx=0;exitDy=0;exitPerimeter=0;" parent="1" source="lAZP1rvu_MSJ7CvuDxen-35" edge="1">
          <mxGeometry width="50" height="50" relative="1" as="geometry">
            <mxPoint x="555" y="717.86" as="sourcePoint" />
            <mxPoint x="710" y="720" as="targetPoint" />
          </mxGeometry>
        </mxCell>
        <mxCell id="lAZP1rvu_MSJ7CvuDxen-137" value="" style="endArrow=classic;html=1;rounded=0;exitX=1.002;exitY=0.547;exitDx=0;exitDy=0;exitPerimeter=0;" parent="1" source="lAZP1rvu_MSJ7CvuDxen-106" edge="1">
          <mxGeometry width="50" height="50" relative="1" as="geometry">
            <mxPoint x="918" y="645" as="sourcePoint" />
            <mxPoint x="1520" y="670" as="targetPoint" />
          </mxGeometry>
        </mxCell>
        <mxCell id="lAZP1rvu_MSJ7CvuDxen-140" value="median_o" style="text;html=1;align=center;verticalAlign=middle;whiteSpace=wrap;rounded=0;" parent="1" vertex="1">
          <mxGeometry x="1530" y="650" width="60" height="30" as="geometry" />
        </mxCell>
        <mxCell id="lAZP1rvu_MSJ7CvuDxen-146" value="SortAscending7" style="rounded=0;whiteSpace=wrap;html=1;" parent="1" vertex="1">
          <mxGeometry x="279" y="-131.06" width="120" height="290" as="geometry" />
        </mxCell>
        <mxCell id="lAZP1rvu_MSJ7CvuDxen-148" value="" style="endArrow=classic;html=1;rounded=0;" parent="1" edge="1">
          <mxGeometry width="50" height="50" relative="1" as="geometry">
            <mxPoint x="199" y="-111.06" as="sourcePoint" />
            <mxPoint x="279" y="-111.06" as="targetPoint" />
          </mxGeometry>
        </mxCell>
        <mxCell id="lAZP1rvu_MSJ7CvuDxen-149" value="" style="endArrow=classic;html=1;rounded=0;" parent="1" edge="1">
          <mxGeometry width="50" height="50" relative="1" as="geometry">
            <mxPoint x="199" y="-71.06" as="sourcePoint" />
            <mxPoint x="279" y="-71.06" as="targetPoint" />
          </mxGeometry>
        </mxCell>
        <mxCell id="lAZP1rvu_MSJ7CvuDxen-150" value="" style="endArrow=classic;html=1;rounded=0;" parent="1" edge="1">
          <mxGeometry width="50" height="50" relative="1" as="geometry">
            <mxPoint x="199" y="-31.060000000000002" as="sourcePoint" />
            <mxPoint x="279" y="-31.060000000000002" as="targetPoint" />
          </mxGeometry>
        </mxCell>
        <mxCell id="lAZP1rvu_MSJ7CvuDxen-151" value="" style="endArrow=classic;html=1;rounded=0;" parent="1" edge="1">
          <mxGeometry width="50" height="50" relative="1" as="geometry">
            <mxPoint x="199" y="8.939999999999998" as="sourcePoint" />
            <mxPoint x="279" y="8.939999999999998" as="targetPoint" />
          </mxGeometry>
        </mxCell>
        <mxCell id="lAZP1rvu_MSJ7CvuDxen-152" value="" style="endArrow=classic;html=1;rounded=0;" parent="1" edge="1">
          <mxGeometry width="50" height="50" relative="1" as="geometry">
            <mxPoint x="199" y="48.94" as="sourcePoint" />
            <mxPoint x="279" y="48.94" as="targetPoint" />
          </mxGeometry>
        </mxCell>
        <mxCell id="lAZP1rvu_MSJ7CvuDxen-153" value="" style="endArrow=classic;html=1;rounded=0;" parent="1" edge="1">
          <mxGeometry width="50" height="50" relative="1" as="geometry">
            <mxPoint x="199" y="88.94" as="sourcePoint" />
            <mxPoint x="279" y="88.94" as="targetPoint" />
          </mxGeometry>
        </mxCell>
        <mxCell id="lAZP1rvu_MSJ7CvuDxen-154" value="" style="endArrow=classic;html=1;rounded=0;" parent="1" edge="1">
          <mxGeometry width="50" height="50" relative="1" as="geometry">
            <mxPoint x="199" y="128.94" as="sourcePoint" />
            <mxPoint x="279" y="128.94" as="targetPoint" />
          </mxGeometry>
        </mxCell>
        <mxCell id="lAZP1rvu_MSJ7CvuDxen-155" value="S1" style="text;html=1;align=center;verticalAlign=middle;whiteSpace=wrap;rounded=0;" parent="1" vertex="1">
          <mxGeometry x="149" y="-141.06" width="60" height="30" as="geometry" />
        </mxCell>
        <mxCell id="lAZP1rvu_MSJ7CvuDxen-156" value="S2" style="text;html=1;align=center;verticalAlign=middle;whiteSpace=wrap;rounded=0;" parent="1" vertex="1">
          <mxGeometry x="149" y="-101.06" width="60" height="30" as="geometry" />
        </mxCell>
        <mxCell id="lAZP1rvu_MSJ7CvuDxen-157" value="S3" style="text;html=1;align=center;verticalAlign=middle;whiteSpace=wrap;rounded=0;" parent="1" vertex="1">
          <mxGeometry x="149" y="-61.06" width="60" height="30" as="geometry" />
        </mxCell>
        <mxCell id="lAZP1rvu_MSJ7CvuDxen-158" value="S4" style="text;html=1;align=center;verticalAlign=middle;whiteSpace=wrap;rounded=0;" parent="1" vertex="1">
          <mxGeometry x="149" y="-21.060000000000002" width="60" height="30" as="geometry" />
        </mxCell>
        <mxCell id="lAZP1rvu_MSJ7CvuDxen-159" value="S5" style="text;html=1;align=center;verticalAlign=middle;whiteSpace=wrap;rounded=0;" parent="1" vertex="1">
          <mxGeometry x="149" y="18.939999999999998" width="60" height="30" as="geometry" />
        </mxCell>
        <mxCell id="lAZP1rvu_MSJ7CvuDxen-160" value="S6" style="text;html=1;align=center;verticalAlign=middle;whiteSpace=wrap;rounded=0;" parent="1" vertex="1">
          <mxGeometry x="149" y="58.94" width="60" height="30" as="geometry" />
        </mxCell>
        <mxCell id="lAZP1rvu_MSJ7CvuDxen-161" value="S7" style="text;html=1;align=center;verticalAlign=middle;whiteSpace=wrap;rounded=0;" parent="1" vertex="1">
          <mxGeometry x="149" y="98.94" width="60" height="30" as="geometry" />
        </mxCell>
        <mxCell id="lAZP1rvu_MSJ7CvuDxen-184" value="" style="endArrow=classic;html=1;rounded=0;" parent="1" edge="1">
          <mxGeometry width="50" height="50" relative="1" as="geometry">
            <mxPoint x="399" y="-111.06" as="sourcePoint" />
            <mxPoint x="479" y="-111.06" as="targetPoint" />
          </mxGeometry>
        </mxCell>
        <mxCell id="lAZP1rvu_MSJ7CvuDxen-185" value="" style="endArrow=classic;html=1;rounded=0;" parent="1" edge="1">
          <mxGeometry width="50" height="50" relative="1" as="geometry">
            <mxPoint x="399" y="-71.06" as="sourcePoint" />
            <mxPoint x="479" y="-71.06" as="targetPoint" />
          </mxGeometry>
        </mxCell>
        <mxCell id="lAZP1rvu_MSJ7CvuDxen-186" value="" style="endArrow=classic;html=1;rounded=0;" parent="1" edge="1">
          <mxGeometry width="50" height="50" relative="1" as="geometry">
            <mxPoint x="399" y="-31.060000000000002" as="sourcePoint" />
            <mxPoint x="479" y="-31.060000000000002" as="targetPoint" />
          </mxGeometry>
        </mxCell>
        <mxCell id="lAZP1rvu_MSJ7CvuDxen-187" value="" style="endArrow=classic;html=1;rounded=0;" parent="1" edge="1">
          <mxGeometry width="50" height="50" relative="1" as="geometry">
            <mxPoint x="399" y="8.939999999999998" as="sourcePoint" />
            <mxPoint x="479" y="8.939999999999998" as="targetPoint" />
          </mxGeometry>
        </mxCell>
        <mxCell id="lAZP1rvu_MSJ7CvuDxen-188" value="" style="endArrow=classic;html=1;rounded=0;" parent="1" edge="1">
          <mxGeometry width="50" height="50" relative="1" as="geometry">
            <mxPoint x="399" y="48.94" as="sourcePoint" />
            <mxPoint x="479" y="48.94" as="targetPoint" />
          </mxGeometry>
        </mxCell>
        <mxCell id="lAZP1rvu_MSJ7CvuDxen-189" value="" style="endArrow=classic;html=1;rounded=0;" parent="1" edge="1">
          <mxGeometry width="50" height="50" relative="1" as="geometry">
            <mxPoint x="399" y="88.94" as="sourcePoint" />
            <mxPoint x="479" y="88.94" as="targetPoint" />
          </mxGeometry>
        </mxCell>
        <mxCell id="lAZP1rvu_MSJ7CvuDxen-190" value="" style="endArrow=classic;html=1;rounded=0;" parent="1" edge="1">
          <mxGeometry width="50" height="50" relative="1" as="geometry">
            <mxPoint x="399" y="128.94" as="sourcePoint" />
            <mxPoint x="479" y="128.94" as="targetPoint" />
          </mxGeometry>
        </mxCell>
        <mxCell id="lAZP1rvu_MSJ7CvuDxen-199" value="min" style="text;html=1;align=center;verticalAlign=middle;whiteSpace=wrap;rounded=0;" parent="1" vertex="1">
          <mxGeometry x="460" y="-141.06" width="60" height="30" as="geometry" />
        </mxCell>
        <mxCell id="lAZP1rvu_MSJ7CvuDxen-200" value="out2" style="text;html=1;align=center;verticalAlign=middle;whiteSpace=wrap;rounded=0;" parent="1" vertex="1">
          <mxGeometry x="460" y="-101.06" width="60" height="30" as="geometry" />
        </mxCell>
        <mxCell id="lAZP1rvu_MSJ7CvuDxen-201" value="out3" style="text;html=1;align=center;verticalAlign=middle;whiteSpace=wrap;rounded=0;" parent="1" vertex="1">
          <mxGeometry x="460" y="-61.06" width="60" height="30" as="geometry" />
        </mxCell>
        <mxCell id="lAZP1rvu_MSJ7CvuDxen-202" value="mid" style="text;html=1;align=center;verticalAlign=middle;whiteSpace=wrap;rounded=0;" parent="1" vertex="1">
          <mxGeometry x="460" y="-21.060000000000002" width="60" height="30" as="geometry" />
        </mxCell>
        <mxCell id="lAZP1rvu_MSJ7CvuDxen-203" value="out5" style="text;html=1;align=center;verticalAlign=middle;whiteSpace=wrap;rounded=0;" parent="1" vertex="1">
          <mxGeometry x="460" y="18.939999999999998" width="60" height="30" as="geometry" />
        </mxCell>
        <mxCell id="lAZP1rvu_MSJ7CvuDxen-204" value="out6" style="text;html=1;align=center;verticalAlign=middle;whiteSpace=wrap;rounded=0;" parent="1" vertex="1">
          <mxGeometry x="460" y="58.94" width="60" height="30" as="geometry" />
        </mxCell>
        <mxCell id="lAZP1rvu_MSJ7CvuDxen-205" value="max" style="text;html=1;align=center;verticalAlign=middle;whiteSpace=wrap;rounded=0;" parent="1" vertex="1">
          <mxGeometry x="460" y="98.94" width="60" height="30" as="geometry" />
        </mxCell>
        <mxCell id="lAZP1rvu_MSJ7CvuDxen-207" value="SortAcsending5" style="rounded=0;whiteSpace=wrap;html=1;" parent="1" vertex="1">
          <mxGeometry x="870" y="-241.06" width="120" height="240" as="geometry" />
        </mxCell>
        <mxCell id="lAZP1rvu_MSJ7CvuDxen-208" value="" style="endArrow=classic;html=1;rounded=0;" parent="1" edge="1">
          <mxGeometry width="50" height="50" relative="1" as="geometry">
            <mxPoint x="790" y="-201.76999999999998" as="sourcePoint" />
            <mxPoint x="870" y="-201.76999999999998" as="targetPoint" />
          </mxGeometry>
        </mxCell>
        <mxCell id="lAZP1rvu_MSJ7CvuDxen-209" value="" style="endArrow=classic;html=1;rounded=0;" parent="1" edge="1">
          <mxGeometry width="50" height="50" relative="1" as="geometry">
            <mxPoint x="790" y="-161.76999999999998" as="sourcePoint" />
            <mxPoint x="870" y="-161.76999999999998" as="targetPoint" />
          </mxGeometry>
        </mxCell>
        <mxCell id="lAZP1rvu_MSJ7CvuDxen-210" value="" style="endArrow=classic;html=1;rounded=0;" parent="1" edge="1">
          <mxGeometry width="50" height="50" relative="1" as="geometry">
            <mxPoint x="790" y="-121.77" as="sourcePoint" />
            <mxPoint x="870" y="-121.77" as="targetPoint" />
          </mxGeometry>
        </mxCell>
        <mxCell id="lAZP1rvu_MSJ7CvuDxen-211" value="" style="endArrow=classic;html=1;rounded=0;" parent="1" edge="1">
          <mxGeometry width="50" height="50" relative="1" as="geometry">
            <mxPoint x="790" y="-81.77" as="sourcePoint" />
            <mxPoint x="870" y="-81.77" as="targetPoint" />
          </mxGeometry>
        </mxCell>
        <mxCell id="lAZP1rvu_MSJ7CvuDxen-212" value="" style="endArrow=classic;html=1;rounded=0;" parent="1" edge="1">
          <mxGeometry width="50" height="50" relative="1" as="geometry">
            <mxPoint x="790" y="-41.769999999999996" as="sourcePoint" />
            <mxPoint x="870" y="-41.769999999999996" as="targetPoint" />
          </mxGeometry>
        </mxCell>
        <mxCell id="lAZP1rvu_MSJ7CvuDxen-213" value="S1" style="text;html=1;align=center;verticalAlign=middle;whiteSpace=wrap;rounded=0;" parent="1" vertex="1">
          <mxGeometry x="740" y="-231.76999999999998" width="60" height="30" as="geometry" />
        </mxCell>
        <mxCell id="lAZP1rvu_MSJ7CvuDxen-214" value="S2" style="text;html=1;align=center;verticalAlign=middle;whiteSpace=wrap;rounded=0;" parent="1" vertex="1">
          <mxGeometry x="740" y="-191.76999999999998" width="60" height="30" as="geometry" />
        </mxCell>
        <mxCell id="lAZP1rvu_MSJ7CvuDxen-215" value="S3" style="text;html=1;align=center;verticalAlign=middle;whiteSpace=wrap;rounded=0;" parent="1" vertex="1">
          <mxGeometry x="740" y="-151.76999999999998" width="60" height="30" as="geometry" />
        </mxCell>
        <mxCell id="lAZP1rvu_MSJ7CvuDxen-216" value="S4" style="text;html=1;align=center;verticalAlign=middle;whiteSpace=wrap;rounded=0;" parent="1" vertex="1">
          <mxGeometry x="740" y="-111.77" width="60" height="30" as="geometry" />
        </mxCell>
        <mxCell id="lAZP1rvu_MSJ7CvuDxen-217" value="S5" style="text;html=1;align=center;verticalAlign=middle;whiteSpace=wrap;rounded=0;" parent="1" vertex="1">
          <mxGeometry x="740" y="-71.77" width="60" height="30" as="geometry" />
        </mxCell>
        <mxCell id="lAZP1rvu_MSJ7CvuDxen-218" value="SortAcsending5" style="rounded=0;whiteSpace=wrap;html=1;" parent="1" vertex="1">
          <mxGeometry x="1170" y="-106.06" width="120" height="265" as="geometry" />
        </mxCell>
        <mxCell id="lAZP1rvu_MSJ7CvuDxen-219" value="" style="endArrow=classic;html=1;rounded=0;" parent="1" edge="1">
          <mxGeometry width="50" height="50" relative="1" as="geometry">
            <mxPoint x="1050" y="118.94" as="sourcePoint" />
            <mxPoint x="1168" y="118.94" as="targetPoint" />
          </mxGeometry>
        </mxCell>
        <mxCell id="lAZP1rvu_MSJ7CvuDxen-220" value="" style="endArrow=classic;html=1;rounded=0;entryX=-0.001;entryY=0.695;entryDx=0;entryDy=0;entryPerimeter=0;" parent="1" target="lAZP1rvu_MSJ7CvuDxen-218" edge="1">
          <mxGeometry width="50" height="50" relative="1" as="geometry">
            <mxPoint x="1050" y="78.94" as="sourcePoint" />
            <mxPoint x="1090" y="78.94" as="targetPoint" />
          </mxGeometry>
        </mxCell>
        <mxCell id="lAZP1rvu_MSJ7CvuDxen-223" value="S7" style="text;html=1;align=center;verticalAlign=middle;whiteSpace=wrap;rounded=0;" parent="1" vertex="1">
          <mxGeometry x="1055.5" y="88.94" width="60" height="30" as="geometry" />
        </mxCell>
        <mxCell id="lAZP1rvu_MSJ7CvuDxen-226" value="S6" style="text;html=1;align=center;verticalAlign=middle;whiteSpace=wrap;rounded=0;" parent="1" vertex="1">
          <mxGeometry x="1055.5" y="48.94" width="60" height="30" as="geometry" />
        </mxCell>
        <mxCell id="lAZP1rvu_MSJ7CvuDxen-227" value="" style="endArrow=classic;html=1;rounded=0;entryX=0.006;entryY=0.096;entryDx=0;entryDy=0;entryPerimeter=0;" parent="1" target="lAZP1rvu_MSJ7CvuDxen-218" edge="1">
          <mxGeometry width="50" height="50" relative="1" as="geometry">
            <mxPoint x="990" y="-81.06" as="sourcePoint" />
            <mxPoint x="1100" y="-71.06" as="targetPoint" />
          </mxGeometry>
        </mxCell>
        <mxCell id="lAZP1rvu_MSJ7CvuDxen-228" value="" style="endArrow=classic;html=1;rounded=0;entryX=0.006;entryY=0.096;entryDx=0;entryDy=0;entryPerimeter=0;" parent="1" edge="1">
          <mxGeometry width="50" height="50" relative="1" as="geometry">
            <mxPoint x="990" y="-66.2" as="sourcePoint" />
            <mxPoint x="1171" y="-66.2" as="targetPoint" />
          </mxGeometry>
        </mxCell>
        <mxCell id="lAZP1rvu_MSJ7CvuDxen-229" value="" style="endArrow=classic;html=1;rounded=0;entryX=0.006;entryY=0.096;entryDx=0;entryDy=0;entryPerimeter=0;" parent="1" edge="1">
          <mxGeometry width="50" height="50" relative="1" as="geometry">
            <mxPoint x="990" y="-41.06" as="sourcePoint" />
            <mxPoint x="1171" y="-41.06" as="targetPoint" />
          </mxGeometry>
        </mxCell>
        <mxCell id="lAZP1rvu_MSJ7CvuDxen-231" value="SortingNetwork" style="rounded=0;whiteSpace=wrap;html=1;" parent="1" vertex="1">
          <mxGeometry x="1370" y="-273.19" width="100" height="121.42" as="geometry" />
        </mxCell>
        <mxCell id="lAZP1rvu_MSJ7CvuDxen-232" value="" style="endArrow=classic;html=1;rounded=0;exitX=1;exitY=0.053;exitDx=0;exitDy=0;exitPerimeter=0;entryX=0.002;entryY=0.35;entryDx=0;entryDy=0;entryPerimeter=0;" parent="1" source="lAZP1rvu_MSJ7CvuDxen-207" target="lAZP1rvu_MSJ7CvuDxen-231" edge="1">
          <mxGeometry width="50" height="50" relative="1" as="geometry">
            <mxPoint x="1070" y="-181.77" as="sourcePoint" />
            <mxPoint x="1120" y="-231.77" as="targetPoint" />
          </mxGeometry>
        </mxCell>
        <mxCell id="lAZP1rvu_MSJ7CvuDxen-233" value="" style="endArrow=classic;html=1;rounded=0;exitX=1;exitY=0.053;exitDx=0;exitDy=0;exitPerimeter=0;entryX=0.002;entryY=0.35;entryDx=0;entryDy=0;entryPerimeter=0;" parent="1" edge="1">
          <mxGeometry width="50" height="50" relative="1" as="geometry">
            <mxPoint x="990" y="-210.98" as="sourcePoint" />
            <mxPoint x="1370" y="-213.98" as="targetPoint" />
          </mxGeometry>
        </mxCell>
        <mxCell id="lAZP1rvu_MSJ7CvuDxen-234" value="" style="endArrow=classic;html=1;rounded=0;exitX=0.997;exitY=0.094;exitDx=0;exitDy=0;exitPerimeter=0;" parent="1" source="lAZP1rvu_MSJ7CvuDxen-218" edge="1">
          <mxGeometry width="50" height="50" relative="1" as="geometry">
            <mxPoint x="1320" y="-96.06" as="sourcePoint" />
            <mxPoint x="1369" y="-161.06" as="targetPoint" />
            <Array as="points">
              <mxPoint x="1330" y="-81.06" />
              <mxPoint x="1330" y="-161.06" />
            </Array>
          </mxGeometry>
        </mxCell>
        <mxCell id="lAZP1rvu_MSJ7CvuDxen-235" value="" style="endArrow=classic;html=1;rounded=0;exitX=1.003;exitY=0.847;exitDx=0;exitDy=0;exitPerimeter=0;" parent="1" source="lAZP1rvu_MSJ7CvuDxen-218" edge="1">
          <mxGeometry width="50" height="50" relative="1" as="geometry">
            <mxPoint x="1370" y="118.94" as="sourcePoint" />
            <mxPoint x="1880" y="119" as="targetPoint" />
            <Array as="points">
              <mxPoint x="1370" y="118.94" />
            </Array>
          </mxGeometry>
        </mxCell>
        <mxCell id="lAZP1rvu_MSJ7CvuDxen-236" value="" style="endArrow=classic;html=1;rounded=0;exitX=1.003;exitY=0.847;exitDx=0;exitDy=0;exitPerimeter=0;" parent="1" edge="1">
          <mxGeometry width="50" height="50" relative="1" as="geometry">
            <mxPoint x="1290" y="78.94" as="sourcePoint" />
            <mxPoint x="1880" y="80" as="targetPoint" />
            <Array as="points">
              <mxPoint x="1410" y="78.94" />
            </Array>
          </mxGeometry>
        </mxCell>
        <mxCell id="lAZP1rvu_MSJ7CvuDxen-237" value="max" style="text;html=1;align=center;verticalAlign=middle;whiteSpace=wrap;rounded=0;" parent="1" vertex="1">
          <mxGeometry x="1880" y="98.94" width="60" height="30" as="geometry" />
        </mxCell>
        <mxCell id="lAZP1rvu_MSJ7CvuDxen-238" value="out6" style="text;html=1;align=center;verticalAlign=middle;whiteSpace=wrap;rounded=0;" parent="1" vertex="1">
          <mxGeometry x="1880" y="58.94" width="60" height="30" as="geometry" />
        </mxCell>
        <mxCell id="lAZP1rvu_MSJ7CvuDxen-239" value="SortingNetwork" style="rounded=0;whiteSpace=wrap;html=1;" parent="1" vertex="1">
          <mxGeometry x="1520" y="-201.76999999999998" width="100" height="121.42" as="geometry" />
        </mxCell>
        <mxCell id="lAZP1rvu_MSJ7CvuDxen-240" value="" style="endArrow=classic;html=1;rounded=0;entryX=0;entryY=0.088;entryDx=0;entryDy=0;entryPerimeter=0;" parent="1" target="lAZP1rvu_MSJ7CvuDxen-239" edge="1">
          <mxGeometry width="50" height="50" relative="1" as="geometry">
            <mxPoint x="1470" y="-240" as="sourcePoint" />
            <mxPoint x="1519.1000000000001" y="-240.91077999999993" as="targetPoint" />
            <Array as="points">
              <mxPoint x="1500" y="-240" />
              <mxPoint x="1500" y="-191.06" />
            </Array>
          </mxGeometry>
        </mxCell>
        <mxCell id="lAZP1rvu_MSJ7CvuDxen-241" value="" style="endArrow=classic;html=1;rounded=0;exitX=1.003;exitY=0.678;exitDx=0;exitDy=0;exitPerimeter=0;entryX=-0.006;entryY=0.091;entryDx=0;entryDy=0;entryPerimeter=0;" parent="1" edge="1">
          <mxGeometry width="50" height="50" relative="1" as="geometry">
            <mxPoint x="1470" y="-161.77" as="sourcePoint" />
            <mxPoint x="1519" y="-161.77" as="targetPoint" />
          </mxGeometry>
        </mxCell>
        <mxCell id="lAZP1rvu_MSJ7CvuDxen-242" value="SortingNetwork" style="rounded=0;whiteSpace=wrap;html=1;" parent="1" vertex="1">
          <mxGeometry x="1660" y="-277.48" width="100" height="121.42" as="geometry" />
        </mxCell>
        <mxCell id="lAZP1rvu_MSJ7CvuDxen-243" value="" style="endArrow=classic;html=1;rounded=0;exitX=0.993;exitY=0.083;exitDx=0;exitDy=0;exitPerimeter=0;entryX=-0.011;entryY=0.123;entryDx=0;entryDy=0;entryPerimeter=0;" parent="1" source="lAZP1rvu_MSJ7CvuDxen-231" target="lAZP1rvu_MSJ7CvuDxen-242" edge="1">
          <mxGeometry width="50" height="50" relative="1" as="geometry">
            <mxPoint x="1530" y="-223.19" as="sourcePoint" />
            <mxPoint x="1638" y="-263.06" as="targetPoint" />
          </mxGeometry>
        </mxCell>
        <mxCell id="lAZP1rvu_MSJ7CvuDxen-244" value="" style="endArrow=classic;html=1;rounded=0;exitX=0.993;exitY=0.083;exitDx=0;exitDy=0;exitPerimeter=0;entryX=0.01;entryY=0.704;entryDx=0;entryDy=0;entryPerimeter=0;" parent="1" target="lAZP1rvu_MSJ7CvuDxen-242" edge="1">
          <mxGeometry width="50" height="50" relative="1" as="geometry">
            <mxPoint x="1620" y="-191.77" as="sourcePoint" />
            <mxPoint x="1800" y="-190.77" as="targetPoint" />
          </mxGeometry>
        </mxCell>
        <mxCell id="lAZP1rvu_MSJ7CvuDxen-245" value="" style="endArrow=classic;html=1;rounded=0;exitX=1.003;exitY=0.847;exitDx=0;exitDy=0;exitPerimeter=0;" parent="1" edge="1">
          <mxGeometry width="50" height="50" relative="1" as="geometry">
            <mxPoint x="1290" y="38.94" as="sourcePoint" />
            <mxPoint x="1880" y="39" as="targetPoint" />
            <Array as="points">
              <mxPoint x="1490" y="38.94" />
            </Array>
          </mxGeometry>
        </mxCell>
        <mxCell id="lAZP1rvu_MSJ7CvuDxen-247" value="" style="endArrow=classic;html=1;rounded=0;exitX=1;exitY=0.25;exitDx=0;exitDy=0;entryX=-0.025;entryY=0.832;entryDx=0;entryDy=0;entryPerimeter=0;" parent="1" source="lAZP1rvu_MSJ7CvuDxen-218" target="lAZP1rvu_MSJ7CvuDxen-239" edge="1">
          <mxGeometry width="50" height="50" relative="1" as="geometry">
            <mxPoint x="1290" y="-46.150000000000006" as="sourcePoint" />
            <mxPoint x="1410" y="-67.4" as="targetPoint" />
            <Array as="points">
              <mxPoint x="1400" y="-41.06" />
              <mxPoint x="1450" y="-101.06" />
            </Array>
          </mxGeometry>
        </mxCell>
        <mxCell id="lAZP1rvu_MSJ7CvuDxen-248" value="" style="endArrow=classic;html=1;rounded=0;exitX=0.995;exitY=0.912;exitDx=0;exitDy=0;exitPerimeter=0;" parent="1" source="lAZP1rvu_MSJ7CvuDxen-239" edge="1">
          <mxGeometry width="50" height="50" relative="1" as="geometry">
            <mxPoint x="1670" y="-111.06" as="sourcePoint" />
            <mxPoint x="1880" y="-91" as="targetPoint" />
            <Array as="points">
              <mxPoint x="1650" y="-91.06" />
            </Array>
          </mxGeometry>
        </mxCell>
        <mxCell id="lAZP1rvu_MSJ7CvuDxen-249" value="out5" style="text;html=1;align=center;verticalAlign=middle;whiteSpace=wrap;rounded=0;" parent="1" vertex="1">
          <mxGeometry x="1880" y="18.939999999999998" width="60" height="30" as="geometry" />
        </mxCell>
        <mxCell id="lAZP1rvu_MSJ7CvuDxen-250" value="mid" style="text;html=1;align=center;verticalAlign=middle;whiteSpace=wrap;rounded=0;" parent="1" vertex="1">
          <mxGeometry x="1880" y="-106.05999999999997" width="60" height="30" as="geometry" />
        </mxCell>
        <mxCell id="lAZP1rvu_MSJ7CvuDxen-251" value="" style="endArrow=classic;html=1;rounded=0;exitX=0.998;exitY=0.323;exitDx=0;exitDy=0;exitPerimeter=0;entryX=-0.009;entryY=0.952;entryDx=0;entryDy=0;entryPerimeter=0;" parent="1" source="lAZP1rvu_MSJ7CvuDxen-239" target="lAZP1rvu_MSJ7CvuDxen-242" edge="1">
          <mxGeometry width="50" height="50" relative="1" as="geometry">
            <mxPoint x="1620" y="-101.77000000000001" as="sourcePoint" />
            <mxPoint x="1670" y="-151.77" as="targetPoint" />
          </mxGeometry>
        </mxCell>
        <mxCell id="lAZP1rvu_MSJ7CvuDxen-253" value="" style="endArrow=classic;html=1;rounded=0;exitX=0.998;exitY=0.867;exitDx=0;exitDy=0;exitPerimeter=0;" parent="1" edge="1">
          <mxGeometry width="50" height="50" relative="1" as="geometry">
            <mxPoint x="1760" y="-172.06" as="sourcePoint" />
            <mxPoint x="1890" y="-171.06" as="targetPoint" />
          </mxGeometry>
        </mxCell>
        <mxCell id="lAZP1rvu_MSJ7CvuDxen-254" value="" style="endArrow=classic;html=1;rounded=0;exitX=0.998;exitY=0.867;exitDx=0;exitDy=0;exitPerimeter=0;" parent="1" edge="1">
          <mxGeometry width="50" height="50" relative="1" as="geometry">
            <mxPoint x="1760" y="-261.06" as="sourcePoint" />
            <mxPoint x="1890" y="-260.06" as="targetPoint" />
          </mxGeometry>
        </mxCell>
        <mxCell id="lAZP1rvu_MSJ7CvuDxen-255" value="" style="endArrow=classic;html=1;rounded=0;exitX=0.998;exitY=0.867;exitDx=0;exitDy=0;exitPerimeter=0;" parent="1" edge="1">
          <mxGeometry width="50" height="50" relative="1" as="geometry">
            <mxPoint x="1760" y="-221.06" as="sourcePoint" />
            <mxPoint x="1890" y="-220.06" as="targetPoint" />
          </mxGeometry>
        </mxCell>
        <mxCell id="lAZP1rvu_MSJ7CvuDxen-257" value="min" style="text;html=1;align=center;verticalAlign=middle;whiteSpace=wrap;rounded=0;" parent="1" vertex="1">
          <mxGeometry x="1880" y="-277.48" width="60" height="30" as="geometry" />
        </mxCell>
        <mxCell id="lAZP1rvu_MSJ7CvuDxen-258" value="out2" style="text;html=1;align=center;verticalAlign=middle;whiteSpace=wrap;rounded=0;" parent="1" vertex="1">
          <mxGeometry x="1880" y="-231.77" width="60" height="30" as="geometry" />
        </mxCell>
        <mxCell id="lAZP1rvu_MSJ7CvuDxen-259" value="out3" style="text;html=1;align=center;verticalAlign=middle;whiteSpace=wrap;rounded=0;" parent="1" vertex="1">
          <mxGeometry x="1880" y="-186.05999999999997" width="60" height="30" as="geometry" />
        </mxCell>
        <mxCell id="oJ3QWZMt2NWCqgBl0X_o-1" value="" style="endArrow=classic;html=1;rounded=0;exitX=0.998;exitY=0.147;exitDx=0;exitDy=0;exitPerimeter=0;" parent="1" edge="1">
          <mxGeometry width="50" height="50" relative="1" as="geometry">
            <mxPoint x="555" y="480" as="sourcePoint" />
            <mxPoint x="710" y="480" as="targetPoint" />
          </mxGeometry>
        </mxCell>
        <mxCell id="oJ3QWZMt2NWCqgBl0X_o-2" value="" style="endArrow=classic;html=1;rounded=0;exitX=0.998;exitY=0.147;exitDx=0;exitDy=0;exitPerimeter=0;" parent="1" edge="1">
          <mxGeometry width="50" height="50" relative="1" as="geometry">
            <mxPoint x="555" y="760" as="sourcePoint" />
            <mxPoint x="710" y="760" as="targetPoint" />
          </mxGeometry>
        </mxCell>
        <mxCell id="oJ3QWZMt2NWCqgBl0X_o-3" value="" style="endArrow=classic;html=1;rounded=0;exitX=0.998;exitY=0.147;exitDx=0;exitDy=0;exitPerimeter=0;" parent="1" edge="1">
          <mxGeometry width="50" height="50" relative="1" as="geometry">
            <mxPoint x="555" y="360" as="sourcePoint" />
            <mxPoint x="710" y="360" as="targetPoint" />
          </mxGeometry>
        </mxCell>
        <mxCell id="oJ3QWZMt2NWCqgBl0X_o-4" value="......" style="text;html=1;align=center;verticalAlign=middle;whiteSpace=wrap;rounded=0;direction=north;rotation=90;" parent="1" vertex="1">
          <mxGeometry x="570" y="395" width="50" height="60" as="geometry" />
        </mxCell>
        <mxCell id="oJ3QWZMt2NWCqgBl0X_o-5" value="......" style="text;html=1;align=center;verticalAlign=middle;whiteSpace=wrap;rounded=0;direction=north;rotation=90;" parent="1" vertex="1">
          <mxGeometry x="570" y="785" width="50" height="60" as="geometry" />
        </mxCell>
        <mxCell id="oJ3QWZMt2NWCqgBl0X_o-6" value="SortingNetwork" style="rounded=0;whiteSpace=wrap;html=1;" parent="1" vertex="1">
          <mxGeometry x="790" y="468.58000000000004" width="100" height="121.42" as="geometry" />
        </mxCell>
        <mxCell id="oJ3QWZMt2NWCqgBl0X_o-7" value="SortingNetwork" style="rounded=0;whiteSpace=wrap;html=1;" parent="1" vertex="1">
          <mxGeometry x="790" y="723.58" width="100" height="121.42" as="geometry" />
        </mxCell>
        <mxCell id="oJ3QWZMt2NWCqgBl0X_o-9" value="" style="endArrow=classic;html=1;rounded=0;entryX=-0.011;entryY=0.101;entryDx=0;entryDy=0;entryPerimeter=0;fillColor=#d5e8d4;strokeColor=#82b366;" parent="1" target="oJ3QWZMt2NWCqgBl0X_o-6" edge="1">
          <mxGeometry width="50" height="50" relative="1" as="geometry">
            <mxPoint x="560" y="640" as="sourcePoint" />
            <mxPoint x="680" y="590" as="targetPoint" />
            <Array as="points">
              <mxPoint x="720" y="640" />
              <mxPoint x="760" y="480" />
            </Array>
          </mxGeometry>
        </mxCell>
        <mxCell id="oJ3QWZMt2NWCqgBl0X_o-10" value="" style="endArrow=classic;html=1;rounded=0;entryX=-0.01;entryY=0.299;entryDx=0;entryDy=0;entryPerimeter=0;fillColor=#d5e8d4;strokeColor=#82b366;" parent="1" target="oJ3QWZMt2NWCqgBl0X_o-7" edge="1">
          <mxGeometry width="50" height="50" relative="1" as="geometry">
            <mxPoint x="560" y="670" as="sourcePoint" />
            <mxPoint x="795" y="626.3" as="targetPoint" />
            <Array as="points">
              <mxPoint x="720" y="670" />
              <mxPoint x="740" y="760" />
            </Array>
          </mxGeometry>
        </mxCell>
        <mxCell id="oJ3QWZMt2NWCqgBl0X_o-11" value="col2_out3, col3_out2, col4_min" style="text;html=1;align=left;verticalAlign=middle;whiteSpace=wrap;rounded=0;fillColor=#d5e8d4;strokeColor=#82b366;" parent="1" vertex="1">
          <mxGeometry x="650" y="590" width="70" height="40" as="geometry" />
        </mxCell>
        <mxCell id="oJ3QWZMt2NWCqgBl0X_o-12" value="col2_max, col3_out6, col4_out5" style="text;html=1;align=left;verticalAlign=middle;whiteSpace=wrap;rounded=0;fillColor=#d5e8d4;strokeColor=#82b366;" parent="1" vertex="1">
          <mxGeometry x="650" y="673.6999999999999" width="70" height="40" as="geometry" />
        </mxCell>
        <mxCell id="oJ3QWZMt2NWCqgBl0X_o-13" value="" style="endArrow=classic;html=1;rounded=0;exitX=1;exitY=0.75;exitDx=0;exitDy=0;entryX=0;entryY=0.218;entryDx=0;entryDy=0;entryPerimeter=0;" parent="1" source="oJ3QWZMt2NWCqgBl0X_o-6" target="lAZP1rvu_MSJ7CvuDxen-106" edge="1">
          <mxGeometry width="50" height="50" relative="1" as="geometry">
            <mxPoint x="1050" y="600" as="sourcePoint" />
            <mxPoint x="1100" y="550" as="targetPoint" />
            <Array as="points">
              <mxPoint x="960" y="600" />
            </Array>
          </mxGeometry>
        </mxCell>
        <mxCell id="oJ3QWZMt2NWCqgBl0X_o-15" value="" style="endArrow=classic;html=1;rounded=0;exitX=0.994;exitY=0.293;exitDx=0;exitDy=0;entryX=-0.008;entryY=0.777;entryDx=0;entryDy=0;entryPerimeter=0;exitPerimeter=0;" parent="1" source="oJ3QWZMt2NWCqgBl0X_o-7" target="lAZP1rvu_MSJ7CvuDxen-106" edge="1">
          <mxGeometry width="50" height="50" relative="1" as="geometry">
            <mxPoint x="880" y="723.58" as="sourcePoint" />
            <mxPoint x="1170" y="761.58" as="targetPoint" />
            <Array as="points">
              <mxPoint x="960" y="720" />
            </Array>
          </mxGeometry>
        </mxCell>
        <mxCell id="oJ3QWZMt2NWCqgBl0X_o-16" value="......" style="text;html=1;align=center;verticalAlign=middle;whiteSpace=wrap;rounded=0;direction=north;rotation=90;" parent="1" vertex="1">
          <mxGeometry x="920" y="616.3" width="50" height="60" as="geometry" />
        </mxCell>
        <mxCell id="oJ3QWZMt2NWCqgBl0X_o-17" value="" style="endArrow=classic;html=1;rounded=0;" parent="1" edge="1">
          <mxGeometry width="50" height="50" relative="1" as="geometry">
            <mxPoint x="980" y="660" as="sourcePoint" />
            <mxPoint x="1180" y="659.71" as="targetPoint" />
          </mxGeometry>
        </mxCell>
        <mxCell id="1pN2umW8wTObUkx7pI_h-1" value="&lt;span style=&quot;color: rgb(0, 0, 0); font-family: Helvetica; font-style: normal; font-variant-ligatures: normal; font-variant-caps: normal; letter-spacing: normal; orphans: 2; text-align: center; text-indent: 0px; text-transform: none; widows: 2; word-spacing: 0px; -webkit-text-stroke-width: 0px; white-space: normal; background-color: rgb(251, 251, 251); text-decoration-thickness: initial; text-decoration-style: initial; text-decoration-color: initial; float: none; display: inline !important;&quot;&gt;&lt;b style=&quot;&quot;&gt;&lt;font style=&quot;font-size: 22px;&quot;&gt;SortAscending7&lt;/font&gt;&lt;/b&gt;&lt;/span&gt;" style="text;whiteSpace=wrap;html=1;" parent="1" vertex="1">
          <mxGeometry x="1260" y="-420" width="120" height="40" as="geometry" />
        </mxCell>
        <mxCell id="Ysm--PjL4J-Ic120Il5L-13" value="" style="group" parent="1" vertex="1" connectable="0">
          <mxGeometry x="1481" y="-301.06" width="9" height="460" as="geometry" />
        </mxCell>
        <mxCell id="Ysm--PjL4J-Ic120Il5L-8" value="" style="rounded=0;whiteSpace=wrap;html=1;" parent="Ysm--PjL4J-Ic120Il5L-13" vertex="1">
          <mxGeometry width="9" height="460" as="geometry" />
        </mxCell>
        <mxCell id="Ysm--PjL4J-Ic120Il5L-9" value="" style="triangle;whiteSpace=wrap;html=1;rotation=270;" parent="Ysm--PjL4J-Ic120Il5L-13" vertex="1">
          <mxGeometry x="2" y="455" width="5" height="5" as="geometry" />
        </mxCell>
        <mxCell id="Ysm--PjL4J-Ic120Il5L-19" value="" style="group" parent="1" vertex="1" connectable="0">
          <mxGeometry x="1630" y="-300" width="9" height="460" as="geometry" />
        </mxCell>
        <mxCell id="Ysm--PjL4J-Ic120Il5L-20" value="" style="rounded=0;whiteSpace=wrap;html=1;" parent="Ysm--PjL4J-Ic120Il5L-19" vertex="1">
          <mxGeometry width="9" height="460" as="geometry" />
        </mxCell>
        <mxCell id="Ysm--PjL4J-Ic120Il5L-21" value="" style="triangle;whiteSpace=wrap;html=1;rotation=270;" parent="Ysm--PjL4J-Ic120Il5L-19" vertex="1">
          <mxGeometry x="2" y="455" width="5" height="5" as="geometry" />
        </mxCell>
        <mxCell id="Ysm--PjL4J-Ic120Il5L-22" value="" style="group" parent="1" vertex="1" connectable="0">
          <mxGeometry x="1310" y="-300" width="9" height="460" as="geometry" />
        </mxCell>
        <mxCell id="Ysm--PjL4J-Ic120Il5L-23" value="" style="rounded=0;whiteSpace=wrap;html=1;" parent="Ysm--PjL4J-Ic120Il5L-22" vertex="1">
          <mxGeometry width="9" height="460" as="geometry" />
        </mxCell>
        <mxCell id="Ysm--PjL4J-Ic120Il5L-24" value="" style="triangle;whiteSpace=wrap;html=1;rotation=270;" parent="Ysm--PjL4J-Ic120Il5L-22" vertex="1">
          <mxGeometry x="2" y="455" width="5" height="5" as="geometry" />
        </mxCell>
        <mxCell id="Ysm--PjL4J-Ic120Il5L-25" value="" style="group" parent="1" vertex="1" connectable="0">
          <mxGeometry x="1120" y="-301.06" width="9" height="460" as="geometry" />
        </mxCell>
        <mxCell id="Ysm--PjL4J-Ic120Il5L-26" value="" style="rounded=0;whiteSpace=wrap;html=1;" parent="Ysm--PjL4J-Ic120Il5L-25" vertex="1">
          <mxGeometry width="9" height="460" as="geometry" />
        </mxCell>
        <mxCell id="Ysm--PjL4J-Ic120Il5L-27" value="" style="triangle;whiteSpace=wrap;html=1;rotation=270;" parent="Ysm--PjL4J-Ic120Il5L-25" vertex="1">
          <mxGeometry x="2" y="455" width="5" height="5" as="geometry" />
        </mxCell>
        <mxCell id="Ysm--PjL4J-Ic120Il5L-31" value="" style="group" parent="1" vertex="1" connectable="0">
          <mxGeometry x="71" y="500" width="9" height="460" as="geometry" />
        </mxCell>
        <mxCell id="Ysm--PjL4J-Ic120Il5L-32" value="" style="rounded=0;whiteSpace=wrap;html=1;" parent="Ysm--PjL4J-Ic120Il5L-31" vertex="1">
          <mxGeometry y="-170" width="9" height="630" as="geometry" />
        </mxCell>
        <mxCell id="Ysm--PjL4J-Ic120Il5L-33" value="" style="triangle;whiteSpace=wrap;html=1;rotation=270;" parent="Ysm--PjL4J-Ic120Il5L-31" vertex="1">
          <mxGeometry x="2" y="455" width="5" height="5" as="geometry" />
        </mxCell>
        <mxCell id="bzjRj3TlDCHPrHs_g-5d-1" value="" style="rounded=0;whiteSpace=wrap;html=1;" vertex="1" parent="1">
          <mxGeometry x="310" y="325" width="9" height="630" as="geometry" />
        </mxCell>
        <mxCell id="bzjRj3TlDCHPrHs_g-5d-3" value="" style="triangle;whiteSpace=wrap;html=1;rotation=270;" vertex="1" parent="1">
          <mxGeometry x="312" y="950" width="5" height="5" as="geometry" />
        </mxCell>
        <mxCell id="bzjRj3TlDCHPrHs_g-5d-5" value="14+20+4 = 38" style="text;html=1;align=center;verticalAlign=middle;whiteSpace=wrap;rounded=0;" vertex="1" parent="1">
          <mxGeometry x="1540" y="500" width="60" height="30" as="geometry" />
        </mxCell>
        <mxCell id="bzjRj3TlDCHPrHs_g-5d-6" value="" style="rounded=0;whiteSpace=wrap;html=1;" vertex="1" parent="1">
          <mxGeometry x="630" y="340" width="9" height="610" as="geometry" />
        </mxCell>
        <mxCell id="bzjRj3TlDCHPrHs_g-5d-7" value="" style="triangle;whiteSpace=wrap;html=1;rotation=270;" vertex="1" parent="1">
          <mxGeometry x="632" y="945" width="5" height="5" as="geometry" />
        </mxCell>
        <mxCell id="bzjRj3TlDCHPrHs_g-5d-8" value="" style="rounded=0;whiteSpace=wrap;html=1;" vertex="1" parent="1">
          <mxGeometry x="970" y="341.3" width="9" height="610" as="geometry" />
        </mxCell>
        <mxCell id="bzjRj3TlDCHPrHs_g-5d-10" value="" style="triangle;whiteSpace=wrap;html=1;rotation=270;" vertex="1" parent="1">
          <mxGeometry x="972" y="946.3" width="5" height="5" as="geometry" />
        </mxCell>
      </root>
    </mxGraphModel>
  </diagram>
</mxfile>
